<svg width="184" height="36" viewBox="0 0 184 36" fill="none" xmlns="http://www.w3.org/2000/svg">
<path d="M98.2969 7.44922L92.6484 23H90.3398L96.8438 5.9375H98.332L98.2969 7.44922ZM103.031 23L97.3711 7.44922L97.3359 5.9375H98.8242L105.352 23H103.031ZM102.738 16.6836V18.5352H93.1523V16.6836H102.738ZM114.926 20.0703V10.3203H117.105V23H115.031L114.926 20.0703ZM115.336 17.3984L116.238 17.375C116.238 18.2188 116.148 19 115.969 19.7188C115.797 20.4297 115.516 21.0469 115.125 21.5703C114.734 22.0938 114.223 22.5039 113.59 22.8008C112.957 23.0898 112.188 23.2344 111.281 23.2344C110.664 23.2344 110.098 23.1445 109.582 22.9648C109.074 22.7852 108.637 22.5078 108.27 22.1328C107.902 21.7578 107.617 21.2695 107.414 20.668C107.219 20.0664 107.121 19.3438 107.121 18.5V10.3203H109.289V18.5234C109.289 19.0938 109.352 19.5664 109.477 19.9414C109.609 20.3086 109.785 20.6016 110.004 20.8203C110.23 21.0312 110.48 21.1797 110.754 21.2656C111.035 21.3516 111.324 21.3945 111.621 21.3945C112.543 21.3945 113.273 21.2188 113.812 20.8672C114.352 20.5078 114.738 20.0273 114.973 19.4258C115.215 18.8164 115.336 18.1406 115.336 17.3984ZM125.719 10.3203V11.9844H118.863V10.3203H125.719ZM121.184 7.23828H123.352V19.8594C123.352 20.2891 123.418 20.6133 123.551 20.832C123.684 21.0508 123.855 21.1953 124.066 21.2656C124.277 21.3359 124.504 21.3711 124.746 21.3711C124.926 21.3711 125.113 21.3555 125.309 21.3242C125.512 21.2852 125.664 21.2539 125.766 21.2305L125.777 23C125.605 23.0547 125.379 23.1055 125.098 23.1523C124.824 23.207 124.492 23.2344 124.102 23.2344C123.57 23.2344 123.082 23.1289 122.637 22.918C122.191 22.707 121.836 22.3555 121.57 21.8633C121.312 21.3633 121.184 20.6914 121.184 19.8477V7.23828ZM127.453 16.8008V16.5312C127.453 15.6172 127.586 14.7695 127.852 13.9883C128.117 13.1992 128.5 12.5156 129 11.9375C129.5 11.3516 130.105 10.8984 130.816 10.5781C131.527 10.25 132.324 10.0859 133.207 10.0859C134.098 10.0859 134.898 10.25 135.609 10.5781C136.328 10.8984 136.938 11.3516 137.438 11.9375C137.945 12.5156 138.332 13.1992 138.598 13.9883C138.863 14.7695 138.996 15.6172 138.996 16.5312V16.8008C138.996 17.7148 138.863 18.5625 138.598 19.3438C138.332 20.125 137.945 20.8086 137.438 21.3945C136.938 21.9727 136.332 22.4258 135.621 22.7539C134.918 23.0742 134.121 23.2344 133.23 23.2344C132.34 23.2344 131.539 23.0742 130.828 22.7539C130.117 22.4258 129.508 21.9727 129 21.3945C128.5 20.8086 128.117 20.125 127.852 19.3438C127.586 18.5625 127.453 17.7148 127.453 16.8008ZM129.621 16.5312V16.8008C129.621 17.4336 129.695 18.0312 129.844 18.5938C129.992 19.1484 130.215 19.6406 130.512 20.0703C130.816 20.5 131.195 20.8398 131.648 21.0898C132.102 21.332 132.629 21.4531 133.23 21.4531C133.824 21.4531 134.344 21.332 134.789 21.0898C135.242 20.8398 135.617 20.5 135.914 20.0703C136.211 19.6406 136.434 19.1484 136.582 18.5938C136.738 18.0312 136.816 17.4336 136.816 16.8008V16.5312C136.816 15.9062 136.738 15.3164 136.582 14.7617C136.434 14.1992 136.207 13.7031 135.902 13.2734C135.605 12.8359 135.23 12.4922 134.777 12.2422C134.332 11.9922 133.809 11.8672 133.207 11.8672C132.613 11.8672 132.09 11.9922 131.637 12.2422C131.191 12.4922 130.816 12.8359 130.512 13.2734C130.215 13.7031 129.992 14.1992 129.844 14.7617C129.695 15.3164 129.621 15.9062 129.621 16.5312ZM145.219 22.3789C145.914 22.3789 146.551 22.2461 147.129 21.9805C147.707 21.7148 148.199 21.3398 148.605 20.8555C149.02 20.3633 149.316 19.7891 149.496 19.1328H150.398C150.227 19.9531 149.887 20.6719 149.379 21.2891C148.879 21.9062 148.27 22.3867 147.551 22.7305C146.832 23.0664 146.055 23.2344 145.219 23.2344C144.328 23.2344 143.586 23.0508 142.992 22.6836C142.406 22.3086 141.949 21.8164 141.621 21.207C141.301 20.5898 141.094 19.9102 141 19.168C140.906 18.418 140.91 17.668 141.012 16.918L141.07 16.4141C141.195 15.625 141.41 14.8555 141.715 14.1055C142.027 13.3477 142.434 12.668 142.934 12.0664C143.434 11.457 144.031 10.9727 144.727 10.6133C145.422 10.2539 146.211 10.0781 147.094 10.0859C147.961 10.0859 148.707 10.2812 149.332 10.6719C149.957 11.0625 150.426 11.5938 150.738 12.2656C151.051 12.9297 151.184 13.6875 151.137 14.5391H150.234C150.289 13.8594 150.195 13.25 149.953 12.7109C149.719 12.1719 149.355 11.7422 148.863 11.4219C148.379 11.1016 147.785 10.9414 147.082 10.9414C146.316 10.9336 145.641 11.0898 145.055 11.4102C144.469 11.7227 143.969 12.1445 143.555 12.6758C143.141 13.1992 142.805 13.7891 142.547 14.4453C142.289 15.0938 142.109 15.75 142.008 16.4141L141.926 16.9062C141.832 17.5312 141.809 18.1641 141.855 18.8047C141.91 19.4453 142.055 20.0352 142.289 20.5742C142.523 21.1133 142.879 21.5469 143.355 21.875C143.84 22.2031 144.461 22.3711 145.219 22.3789ZM160.652 20.668L161.766 14.1172C161.875 13.4375 161.82 12.8633 161.602 12.3945C161.383 11.918 161.035 11.5586 160.559 11.3164C160.09 11.0664 159.523 10.9375 158.859 10.9297C158.25 10.9297 157.652 11.043 157.066 11.2695C156.48 11.4883 155.969 11.8125 155.531 12.2422C155.094 12.6641 154.801 13.1836 154.652 13.8008L153.738 13.7891C153.84 13.1953 154.059 12.668 154.395 12.207C154.73 11.7461 155.141 11.3594 155.625 11.0469C156.109 10.7344 156.633 10.4961 157.195 10.332C157.758 10.168 158.324 10.0859 158.895 10.0859C159.715 10.0859 160.43 10.25 161.039 10.5781C161.656 10.8984 162.113 11.3594 162.41 11.9609C162.715 12.5625 162.805 13.2891 162.68 14.1406L161.613 20.3984C161.543 20.8047 161.492 21.2188 161.461 21.6406C161.43 22.0547 161.453 22.4648 161.531 22.8711L161.52 23H160.523C160.484 22.6094 160.48 22.2188 160.512 21.8281C160.543 21.4375 160.59 21.0508 160.652 20.668ZM161.777 15.8047L161.684 16.6133H158.742C158.219 16.6211 157.664 16.6758 157.078 16.7773C156.5 16.8711 155.941 17.0352 155.402 17.2695C154.871 17.4961 154.414 17.8125 154.031 18.2188C153.656 18.6172 153.41 19.1211 153.293 19.7305C153.207 20.2617 153.27 20.7266 153.48 21.125C153.691 21.5156 154.004 21.8203 154.418 22.0391C154.832 22.25 155.289 22.3594 155.789 22.3672C156.57 22.375 157.297 22.2383 157.969 21.957C158.648 21.668 159.254 21.2695 159.785 20.7617C160.324 20.2539 160.77 19.6602 161.121 18.9805L161.426 19.6719C161.176 20.2188 160.852 20.7148 160.453 21.1602C160.055 21.5977 159.602 21.9727 159.094 22.2852C158.594 22.5898 158.059 22.8281 157.488 23C156.918 23.1641 156.328 23.2422 155.719 23.2344C155.039 23.2266 154.43 23.082 153.891 22.8008C153.352 22.5195 152.938 22.1172 152.648 21.5938C152.367 21.0703 152.273 20.4531 152.367 19.7422C152.477 19 152.738 18.3789 153.152 17.8789C153.574 17.3789 154.09 16.9766 154.699 16.6719C155.309 16.3672 155.957 16.1484 156.645 16.0156C157.34 15.875 158.004 15.8047 158.637 15.8047H161.777ZM167.719 12.5L165.914 23H164.988L167.168 10.3203H168.082L167.719 12.5ZM172.77 10.2266L172.605 11.0586C172.473 11.0352 172.34 11.0195 172.207 11.0117C172.074 10.9961 171.938 10.9883 171.797 10.9883C171.094 10.9883 170.469 11.1328 169.922 11.4219C169.383 11.7109 168.914 12.1016 168.516 12.5938C168.125 13.0859 167.797 13.6289 167.531 14.2227C167.273 14.8164 167.078 15.418 166.945 16.0273L166.477 16.1211C166.602 15.4102 166.793 14.6992 167.051 13.9883C167.316 13.2695 167.664 12.6133 168.094 12.0195C168.531 11.4258 169.059 10.9531 169.676 10.6016C170.293 10.2422 171.02 10.0664 171.855 10.0742C172.012 10.0742 172.164 10.0898 172.312 10.1211C172.469 10.1445 172.621 10.1797 172.77 10.2266ZM177.27 23.2344C176.418 23.2344 175.684 23.0547 175.066 22.6953C174.449 22.3281 173.949 21.8438 173.566 21.2422C173.191 20.6328 172.934 19.9609 172.793 19.2266C172.66 18.4844 172.641 17.7344 172.734 16.9766L172.816 16.4609C172.926 15.6875 173.145 14.9258 173.473 14.1758C173.809 13.418 174.238 12.7305 174.762 12.1133C175.293 11.4961 175.906 11.0039 176.602 10.6367C177.305 10.2617 178.086 10.0781 178.945 10.0859C179.727 10.0859 180.387 10.2461 180.926 10.5664C181.465 10.8867 181.895 11.3125 182.215 11.8438C182.543 12.375 182.762 12.9727 182.871 13.6367C182.98 14.293 182.992 14.9648 182.906 15.6523L182.801 16.4375H173.379L173.508 15.582H181.957L181.992 15.4297C182.117 14.7188 182.086 14.0195 181.898 13.332C181.719 12.6445 181.379 12.0781 180.879 11.6328C180.387 11.1797 179.734 10.9492 178.922 10.9414C178.188 10.9336 177.523 11.0938 176.93 11.4219C176.336 11.7422 175.82 12.1758 175.383 12.7227C174.945 13.2617 174.586 13.8594 174.305 14.5156C174.031 15.1641 173.84 15.8125 173.73 16.4609L173.66 16.9648C173.566 17.5898 173.566 18.2227 173.66 18.8633C173.762 19.4961 173.957 20.0781 174.246 20.6094C174.543 21.1406 174.945 21.5703 175.453 21.8984C175.961 22.2188 176.578 22.3828 177.305 22.3906C178.078 22.3984 178.777 22.2461 179.402 21.9336C180.035 21.6211 180.621 21.1992 181.16 20.668L181.734 21.125C181.359 21.5781 180.938 21.9648 180.469 22.2852C180.008 22.5977 179.508 22.8359 178.969 23C178.43 23.1562 177.863 23.2344 177.27 23.2344Z" fill="black"/>
<g clip-path="url(#clip0_2003_1869)">
<g filter="url(#filter0_d_2003_1869)">
<path d="M34 8.00021C40.8333 5.33354 55.6108 0.501458 74.5 9.00021C76.7218 9.99984 77 11.9998 77 13.5003V18.0837C77 19.6925 77.0431 21.5044 75.8251 22.5555C75.0474 23.2266 73.8292 23.7032 72 23.5M9.5 22L6.47028 18.6336C5.52374 17.5819 5 16.2171 5 14.8022C5 14.27 5.05277 13.7217 5.3686 13.2934C6.26098 12.0832 8.72826 10.5 14 10.5C20.4 10.5 40.5833 10.5 49.875 10.5C52.75 10.6667 59.2 10.5 62 8.5M61.5 13C56.1667 17.3333 42.5 25.2 30.5 22" stroke="black"/>
</g>
<g filter="url(#filter1_d_2003_1869)">
<path d="M19 27.5C22.0376 27.5 24.5 25.0376 24.5 22C24.5 18.9624 22.0376 16.5 19 16.5C15.9624 16.5 13.5 18.9624 13.5 22C13.5 25.0376 15.9624 27.5 19 27.5Z" stroke="black"/>
</g>
<g filter="url(#filter2_d_2003_1869)">
<path d="M64 27.5C67.0376 27.5 69.5 25.0376 69.5 22C69.5 18.9624 67.0376 16.5 64 16.5C60.9624 16.5 58.5 18.9624 58.5 22C58.5 25.0376 60.9624 27.5 64 27.5Z" stroke="black"/>
</g>
</g>
<defs>
<filter id="filter0_d_2003_1869" x="0.5" y="3.69824" width="81.0002" height="28.3491" filterUnits="userSpaceOnUse" color-interpolation-filters="sRGB">
<feFlood flood-opacity="0" result="BackgroundImageFix"/>
<feColorMatrix in="SourceAlpha" type="matrix" values="0 0 0 0 0 0 0 0 0 0 0 0 0 0 0 0 0 0 127 0" result="hardAlpha"/>
<feOffset dy="4"/>
<feGaussianBlur stdDeviation="2"/>
<feComposite in2="hardAlpha" operator="out"/>
<feColorMatrix type="matrix" values="0 0 0 0 0 0 0 0 0 0 0 0 0 0 0 0 0 0 0.25 0"/>
<feBlend mode="normal" in2="BackgroundImageFix" result="effect1_dropShadow_2003_1869"/>
<feBlend mode="normal" in="SourceGraphic" in2="effect1_dropShadow_2003_1869" result="shape"/>
</filter>
<filter id="filter1_d_2003_1869" x="9" y="16" width="20" height="20" filterUnits="userSpaceOnUse" color-interpolation-filters="sRGB">
<feFlood flood-opacity="0" result="BackgroundImageFix"/>
<feColorMatrix in="SourceAlpha" type="matrix" values="0 0 0 0 0 0 0 0 0 0 0 0 0 0 0 0 0 0 127 0" result="hardAlpha"/>
<feOffset dy="4"/>
<feGaussianBlur stdDeviation="2"/>
<feComposite in2="hardAlpha" operator="out"/>
<feColorMatrix type="matrix" values="0 0 0 0 0 0 0 0 0 0 0 0 0 0 0 0 0 0 0.25 0"/>
<feBlend mode="normal" in2="BackgroundImageFix" result="effect1_dropShadow_2003_1869"/>
<feBlend mode="normal" in="SourceGraphic" in2="effect1_dropShadow_2003_1869" result="shape"/>
</filter>
<filter id="filter2_d_2003_1869" x="54" y="16" width="20" height="20" filterUnits="userSpaceOnUse" color-interpolation-filters="sRGB">
<feFlood flood-opacity="0" result="BackgroundImageFix"/>
<feColorMatrix in="SourceAlpha" type="matrix" values="0 0 0 0 0 0 0 0 0 0 0 0 0 0 0 0 0 0 127 0" result="hardAlpha"/>
<feOffset dy="4"/>
<feGaussianBlur stdDeviation="2"/>
<feComposite in2="hardAlpha" operator="out"/>
<feColorMatrix type="matrix" values="0 0 0 0 0 0 0 0 0 0 0 0 0 0 0 0 0 0 0.25 0"/>
<feBlend mode="normal" in2="BackgroundImageFix" result="effect1_dropShadow_2003_1869"/>
<feBlend mode="normal" in="SourceGraphic" in2="effect1_dropShadow_2003_1869" result="shape"/>
</filter>
<clipPath id="clip0_2003_1869">
<rect width="82" height="33" fill="white" transform="translate(0 3)"/>
</clipPath>
</defs>
</svg>
